<svg xmlns="http://www.w3.org/2000/svg" viewBox="0 0 128 128" role="img" aria-labelledby="title description">
  <title id="title">小鹅通课程下载器图标</title>
  <desc id="description">蓝色圆角方形中的白鹅、课程播放符号与橙色下载徽章</desc>
  <defs>
    <linearGradient id="background" x1="20" y1="12" x2="112" y2="120" gradientUnits="userSpaceOnUse">
      <stop stop-color="#3A91FF" />
      <stop offset="1" stop-color="#1554C7" />
    </linearGradient>
    <linearGradient id="badge" x1="74" y1="69" x2="108" y2="116" gradientUnits="userSpaceOnUse">
      <stop stop-color="#FFB044" />
      <stop offset="1" stop-color="#F47A20" />
    </linearGradient>
  </defs>

  <rect x="4" y="4" width="120" height="120" rx="30" fill="url(#background)" />
  <rect x="5.5" y="5.5" width="117" height="117" rx="28.5" fill="none" stroke="#FFFFFF" stroke-opacity="0.2" stroke-width="3" />

  <path d="M64 34c11 1 21 5 30 12 2 1 2 4 0 5-9 7-19 11-30 12 4-9 4-20 0-29Z" fill="#FF9A32" />
  <path d="M46 49c2 14-5 24-14 37-7 10 0 22 12 22h24c11 0 17-12 11-21-9-13-15-24-14-38H46Z" fill="#FFFFFF" />
  <circle cx="49" cy="39" r="22" fill="#FFFFFF" />
  <circle cx="55" cy="34" r="3.5" fill="#174FAE" />

  <path d="M48 73c0-2 2.2-3.3 4-2.2l15 8.7c1.8 1 1.8 3.5 0 4.5l-15 8.7c-1.8 1-4-.2-4-2.2V73Z" fill="#2775E5" />

  <circle cx="93" cy="92" r="28" fill="url(#badge)" stroke="#FFFFFF" stroke-width="4" />
  <path d="M89 74h8c1.7 0 3 1.3 3 3v13h6c2.3 0 3.5 2.8 1.9 4.4l-11 11a5.5 5.5 0 0 1-7.8 0l-11-11C76.5 92.8 77.7 90 80 90h6V77c0-1.7 1.3-3 3-3Z" fill="#FFFFFF" />
  <rect x="78" y="108" width="30" height="5" rx="2.5" fill="#FFFFFF" />
</svg>
